<?xml version="1.0" ?><!DOCTYPE svg  PUBLIC '-//W3C//DTD SVG 1.1//EN'  'http://www.w3.org/Graphics/SVG/1.1/DTD/svg11.dtd'><svg enable-background="new 0 0 512 512" height="512px" id="Layer_1" version="1.1" viewBox="0 0 512 512" width="512px" xml:space="preserve" xmlns="http://www.w3.org/2000/svg" xmlns:xlink="http://www.w3.org/1999/xlink"><g id="Layer_2"><path d="M363.75,148.75c-59.23-59.22-155.27-59.22-214.5,0c-59.22,59.23-59.22,155.27,0,214.5   c59.23,59.22,155.27,59.22,214.5,0C422.97,304.02,422.97,207.98,363.75,148.75z M318.21,330.31   C305.96,323.24,239.59,285,239.59,285H239c0,0,0-110.71,0-126s24-15.84,24,0s0,111.63,0,111.63s52.31,29.69,67.21,38.811   C345.111,318.56,330.46,337.39,318.21,330.31z" fill="#252525"/></g><g id="Layer_7"><g id="Layer_9"/></g></svg>