<?xml version="1.0" encoding="UTF-8" standalone="no"?>
<!-- Created with Inkscape (http://www.inkscape.org/) -->

<svg
   xmlns:dc="http://purl.org/dc/elements/1.1/"
   xmlns:cc="http://creativecommons.org/ns#"
   xmlns:rdf="http://www.w3.org/1999/02/22-rdf-syntax-ns#"
   xmlns:svg="http://www.w3.org/2000/svg"
   xmlns="http://www.w3.org/2000/svg"
   xmlns:sodipodi="http://sodipodi.sourceforge.net/DTD/sodipodi-0.dtd"
   xmlns:inkscape="http://www.inkscape.org/namespaces/inkscape"
   width="210mm"
   height="297mm"
   viewBox="0 0 210 297"
   version="1.1"
   id="svg8"
   inkscape:version="0.92.0 r15299"
   sodipodi:docname="FullUse Logo Normal.svg">
  <defs
     id="defs2">
    <marker
       inkscape:stockid="Arrow1Send"
       orient="auto"
       refY="0.0"
       refX="0.0"
       id="Arrow1Send"
       style="overflow:visible;"
       inkscape:isstock="true">
      <path
         id="path4580"
         d="M 0.0,0.0 L 5.0,-5.0 L -12.5,0.0 L 5.0,5.0 L 0.0,0.0 z "
         style="fill-rule:evenodd;stroke:#000000;stroke-width:1pt;stroke-opacity:1;fill:#000000;fill-opacity:1"
         transform="scale(0.2) rotate(180) translate(6,0)" />
    </marker>
    <marker
       inkscape:stockid="Arrow2Lend"
       orient="auto"
       refY="0.0"
       refX="0.0"
       id="Arrow2Lend"
       style="overflow:visible;"
       inkscape:isstock="true">
      <path
         id="path4586"
         style="fill-rule:evenodd;stroke-width:0.625;stroke-linejoin:round;stroke:#000000;stroke-opacity:1;fill:#000000;fill-opacity:1"
         d="M 8.7185878,4.0337352 L -2.2072895,0.016013256 L 8.7185884,-4.0017078 C 6.9730900,-1.6296469 6.9831476,1.6157441 8.7185878,4.0337352 z "
         transform="scale(1.1) rotate(180) translate(1,0)" />
    </marker>
    <marker
       inkscape:stockid="Arrow1Lend"
       orient="auto"
       refY="0.0"
       refX="0.0"
       id="marker4979"
       style="overflow:visible;"
       inkscape:isstock="true">
      <path
         id="path4977"
         d="M 0.0,0.0 L 5.0,-5.0 L -12.5,0.0 L 5.0,5.0 L 0.0,0.0 z "
         style="fill-rule:evenodd;stroke:#000000;stroke-width:1pt;stroke-opacity:1;fill:#000000;fill-opacity:1"
         transform="scale(0.8) rotate(180) translate(12.5,0)" />
    </marker>
    <marker
       inkscape:stockid="Arrow1Sstart"
       orient="auto"
       refY="0.0"
       refX="0.0"
       id="Arrow1Sstart"
       style="overflow:visible"
       inkscape:isstock="true">
      <path
         id="path4577"
         d="M 0.0,0.0 L 5.0,-5.0 L -12.5,0.0 L 5.0,5.0 L 0.0,0.0 z "
         style="fill-rule:evenodd;stroke:#000000;stroke-width:1pt;stroke-opacity:1;fill:#000000;fill-opacity:1"
         transform="scale(0.2) translate(6,0)" />
    </marker>
    <marker
       inkscape:stockid="Arrow1Mstart"
       orient="auto"
       refY="0.0"
       refX="0.0"
       id="Arrow1Mstart"
       style="overflow:visible"
       inkscape:isstock="true">
      <path
         id="path4571"
         d="M 0.0,0.0 L 5.0,-5.0 L -12.5,0.0 L 5.0,5.0 L 0.0,0.0 z "
         style="fill-rule:evenodd;stroke:#000000;stroke-width:1pt;stroke-opacity:1;fill:#000000;fill-opacity:1"
         transform="scale(0.4) translate(10,0)" />
    </marker>
    <marker
       inkscape:stockid="Arrow1Lend"
       orient="auto"
       refY="0.0"
       refX="0.0"
       id="Arrow1Lend"
       style="overflow:visible;"
       inkscape:isstock="true">
      <path
         id="path4568"
         d="M 0.0,0.0 L 5.0,-5.0 L -12.5,0.0 L 5.0,5.0 L 0.0,0.0 z "
         style="fill-rule:evenodd;stroke:#000000;stroke-width:1pt;stroke-opacity:1;fill:#000000;fill-opacity:1"
         transform="scale(0.8) rotate(180) translate(12.5,0)" />
    </marker>
    <inkscape:path-effect
       effect="spiro"
       id="path-effect4563"
       is_visible="true" />
    <inkscape:path-effect
       effect="spiro"
       id="path-effect4559"
       is_visible="true" />
  </defs>
  <sodipodi:namedview
     id="base"
     pagecolor="#ffffff"
     bordercolor="#666666"
     borderopacity="1.0"
     inkscape:pageopacity="0.0"
     inkscape:pageshadow="2"
     inkscape:zoom="1.4"
     inkscape:cx="335.76537"
     inkscape:cy="629.03337"
     inkscape:document-units="mm"
     inkscape:current-layer="layer1"
     showgrid="false"
     inkscape:window-width="1280"
     inkscape:window-height="657"
     inkscape:window-x="-8"
     inkscape:window-y="-8"
     inkscape:window-maximized="1" />
  <metadata
     id="metadata5">
    <rdf:RDF>
      <cc:Work
         rdf:about="">
        <dc:format>image/svg+xml</dc:format>
        <dc:type
           rdf:resource="http://purl.org/dc/dcmitype/StillImage" />
        <dc:title />
      </cc:Work>
    </rdf:RDF>
  </metadata>
  <g
     inkscape:label="Layer 1"
     inkscape:groupmode="layer"
     id="layer1">
    <path
       style="fill:#38797a;fill-opacity:1;stroke:#000000;stroke-width:0;stroke-linejoin:miter;stroke-miterlimit:4;stroke-dasharray:none;stroke-opacity:1"
       d="m 136.97564,131.69379 a 14.432554,14.432554 0 0 1 -14.43256,14.43255 14.432554,14.432554 0 0 1 -14.43255,-14.43255 14.432554,14.432554 0 0 1 14.43255,-14.43256 14.432554,14.432554 0 0 1 14.43256,14.43256 z"
       id="path4493" />
    <path
       style="fill:#616161;fill-opacity:1;stroke:#000000;stroke-width:0;stroke-linejoin:miter;stroke-miterlimit:4;stroke-dasharray:none;stroke-opacity:1"
       d="m 136.97611,131.69345 a 14.432554,14.432554 0 0 1 -14.43255,14.43256 14.432554,14.432554 0 0 1 -14.43256,-14.43256 14.432554,14.432554 0 0 1 14.43256,-14.43255 14.432554,14.432554 0 0 1 14.43255,14.43255 z"
       id="path4493-5" />
    <path
       style="fill:#8bc34a;fill-opacity:1;stroke:#000000;stroke-width:0;stroke-linejoin:miter;stroke-miterlimit:4;stroke-dasharray:none;stroke-opacity:1"
       d="m 134.83795,131.69345 a 12.294398,12.294398 0 0 1 -12.29439,12.2944 12.294398,12.294398 0 0 1 -12.2944,-12.2944 12.294398,12.294398 0 0 1 12.2944,-12.2944 12.294398,12.294398 0 0 1 12.29439,12.2944 z"
       id="path4493-8" />
    <rect
       style="fill:#e6e6e6;fill-opacity:1;stroke:#000000;stroke-width:0;stroke-linejoin:miter;stroke-miterlimit:4;stroke-dasharray:none;stroke-opacity:1"
       id="rect4530"
       width="1.9842819"
       height="0"
       x="122.27529"
       y="128.98959"
       ry="0" />
    <path
       style="fill:none;stroke:#ccff90;stroke-width:0.5;stroke-linecap:butt;stroke-linejoin:miter;stroke-miterlimit:4;stroke-dasharray:none;stroke-opacity:0.99607843;paint-order:stroke markers fill"
       d="m 123.31473,121.24107 c 2.73663,0.23139 5.3578,1.61173 7.09692,3.73733 1.73912,2.12559 2.57309,4.96819 2.25799,7.69645 -0.27335,2.36677 -1.39937,4.62629 -3.1258,6.26816 -1.72644,1.64188 -4.04032,2.65326 -6.4181,2.80327 -2.527,0.15942 -5.10301,-0.65998 -7.07449,-2.24882 -1.97148,-1.58884 -3.31937,-3.93131 -3.70387,-6.43397 -0.3845,-2.50266 0.19779,-5.14116 1.59861,-7.25039 1.40082,-2.10923 3.60638,-3.66905 6.06145,-4.28855 1.07753,-0.2719 2.1992,-0.36804 3.30729,-0.28348 z"
       id="path4561" />
    <path
       transform="rotate(-177.17308,120.05965,121.52981)"
       style="fill:#ccff90;fill-opacity:0.99607843;stroke:none;stroke-width:0.3396439;stroke-linejoin:miter;stroke-miterlimit:4;stroke-dasharray:none;stroke-opacity:1;paint-order:stroke markers fill"
       inkscape:transform-center-x="-0.12964909"
       inkscape:transform-center-y="0.1592555"
       d="m 121.05059,122.15555 -1.90097,-0.3558 1.25862,-1.46839 z"
       id="path5187" />
    <path
       style="fill:#010101;fill-opacity:1;stroke:#000000;stroke-width:0;stroke-linejoin:miter;stroke-miterlimit:4;stroke-dasharray:none;stroke-opacity:1"
       d="m 121.89732,119.97211 h 1.32292 v 12.372 h -1.32292 z"
       id="rect4534"
       inkscape:connector-curvature="0" />
    <rect
       style="fill:#ffffff;fill-opacity:1;stroke:#000000;stroke-width:0;stroke-linejoin:miter;stroke-miterlimit:4;stroke-dasharray:none;stroke-opacity:1"
       id="rect4534-0"
       width="1.3229177"
       height="7.5595245"
       x="131.02119"
       y="-129.45685"
       inkscape:transform-center-y="1.023442e-006"
       transform="rotate(90)"
       inkscape:transform-center-x="-3.8085958" />
  </g>
  <g
     inkscape:groupmode="layer"
     id="layer2"
     inkscape:label="Layer 2" />
</svg>
